<svg width="1680" height="500" viewBox="0 0 1680 500" fill="none" xmlns="http://www.w3.org/2000/svg">
<rect width="1680" height="500" fill="black" fill-opacity="0.25"/>
<rect width="1680" height="96" fill="url(#paint0_linear_42_33063)"/>
<path d="M33.9209 65.9219H28.8008V50.5615H33.9209V65.9219ZM64.6416 65.9219H59.5215V50.5615H64.6416V65.9219ZM54.4014 65.9209H49.2812V30.0811H54.4014V65.9209ZM44.1611 65.9189H39.041V40.3193H44.1611V65.9189Z" fill="white"/>
<path d="M138.24 46.4C138.453 47.2533 138.56 48.32 138.56 49.6C138.56 50.8267 138.453 51.8933 138.24 52.8C138.453 53.6533 138.56 54.72 138.56 56C138.56 57.2267 138.453 58.2933 138.24 59.2C138.453 60.0533 138.56 61.12 138.56 62.4C138.56 63.6267 138.453 64.6933 138.24 65.6H135.04C135.253 66.4533 135.36 67.52 135.36 68.8C135.36 70.0267 135.253 71.0933 135.04 72H119.04C118.827 71.0933 118.72 70.0267 118.72 68.8C118.72 67.52 118.827 66.4533 119.04 65.6H115.84C115.627 64.6933 115.52 63.6267 115.52 62.4C115.52 61.12 115.627 60.0533 115.84 59.2H112.64C112.427 58.2933 112.32 57.2267 112.32 56C112.32 54.72 112.427 53.6533 112.64 52.8C112.427 51.8933 112.32 50.8267 112.32 49.6C112.32 48.32 112.427 47.2533 112.64 46.4C112.427 45.4933 112.32 44.4267 112.32 43.2C112.32 41.92 112.427 40.8533 112.64 40H115.84C115.627 39.0933 115.52 38.0267 115.52 36.8C115.52 35.52 115.627 34.4533 115.84 33.6H119.04C118.827 32.6933 118.72 31.6267 118.72 30.4C118.72 29.12 118.827 28.0533 119.04 27.2H135.04C135.253 28.0533 135.36 29.12 135.36 30.4C135.36 31.6267 135.253 32.6933 135.04 33.6H138.24C138.453 34.4533 138.56 35.52 138.56 36.8C138.56 38.0267 138.453 39.0933 138.24 40H131.84C131.627 39.0933 131.52 38.0267 131.52 36.8C131.52 35.52 131.627 34.4533 131.84 33.6H122.24C122.453 34.4533 122.56 35.52 122.56 36.8C122.56 38.0267 122.453 39.0933 122.24 40H119.04C119.253 40.8533 119.36 41.92 119.36 43.2C119.36 44.4267 119.253 45.4933 119.04 46.4C119.253 47.2533 119.36 48.32 119.36 49.6C119.36 50.8267 119.253 51.8933 119.04 52.8C119.253 53.6533 119.36 54.72 119.36 56C119.36 57.2267 119.253 58.2933 119.04 59.2H122.24C122.453 60.0533 122.56 61.12 122.56 62.4C122.56 63.6267 122.453 64.6933 122.24 65.6H131.84C131.627 64.6933 131.52 63.6267 131.52 62.4C131.52 61.12 131.627 60.0533 131.84 59.2C131.627 58.2933 131.52 57.2267 131.52 56C131.52 54.72 131.627 53.6533 131.84 52.8H127.04C126.827 51.8933 126.72 50.8267 126.72 49.6C126.72 48.32 126.827 47.2533 127.04 46.4H138.24ZM170.271 46.4C170.485 47.2533 170.591 48.32 170.591 49.6C170.591 50.8267 170.485 51.8933 170.271 52.8C170.485 53.6533 170.591 54.72 170.591 56C170.591 57.2267 170.485 58.2933 170.271 59.2H167.871C168.085 60.0533 168.191 61.12 168.191 62.4C168.191 63.6267 168.085 64.6933 167.871 65.6H163.871C164.085 66.4533 164.191 67.52 164.191 68.8C164.191 70.0267 164.085 71.0933 163.871 72H151.071C150.858 71.0933 150.751 70.0267 150.751 68.8C150.751 67.52 150.858 66.4533 151.071 65.6H147.071C146.858 64.6933 146.751 63.6267 146.751 62.4C146.751 61.12 146.858 60.0533 147.071 59.2H144.671C144.458 58.2933 144.351 57.2267 144.351 56C144.351 54.72 144.458 53.6533 144.671 52.8C144.458 51.8933 144.351 50.8267 144.351 49.6C144.351 48.32 144.458 47.2533 144.671 46.4C144.458 45.4933 144.351 44.4267 144.351 43.2C144.351 41.92 144.458 40.8533 144.671 40H147.071C146.858 39.0933 146.751 38.0267 146.751 36.8C146.751 35.52 146.858 34.4533 147.071 33.6H151.071C150.858 32.6933 150.751 31.6267 150.751 30.4C150.751 29.12 150.858 28.0533 151.071 27.2H163.871C164.085 28.0533 164.191 29.12 164.191 30.4C164.191 31.6267 164.085 32.6933 163.871 33.6H167.871C168.085 34.4533 168.191 35.52 168.191 36.8C168.191 38.0267 168.085 39.0933 167.871 40H170.271C170.485 40.8533 170.591 41.92 170.591 43.2C170.591 44.4267 170.485 45.4933 170.271 46.4ZM163.871 59.2C163.658 58.2933 163.551 57.2267 163.551 56C163.551 54.72 163.658 53.6533 163.871 52.8C163.658 51.8933 163.551 50.8267 163.551 49.6C163.551 48.32 163.658 47.2533 163.871 46.4C163.658 45.4933 163.551 44.4267 163.551 43.2C163.551 41.92 163.658 40.8533 163.871 40H161.471C161.258 39.0933 161.151 38.0267 161.151 36.8C161.151 35.52 161.258 34.4533 161.471 33.6H153.471C153.685 34.4533 153.791 35.52 153.791 36.8C153.791 38.0267 153.685 39.0933 153.471 40H151.071C151.285 40.8533 151.391 41.92 151.391 43.2C151.391 44.4267 151.285 45.4933 151.071 46.4C151.285 47.2533 151.391 48.32 151.391 49.6C151.391 50.8267 151.285 51.8933 151.071 52.8C151.285 53.6533 151.391 54.72 151.391 56C151.391 57.2267 151.285 58.2933 151.071 59.2H153.471C153.685 60.0533 153.791 61.12 153.791 62.4C153.791 63.6267 153.685 64.6933 153.471 65.6H161.471C161.258 64.6933 161.151 63.6267 161.151 62.4C161.151 61.12 161.258 60.0533 161.471 59.2H163.871ZM202.302 65.6C202.516 66.4533 202.622 67.52 202.622 68.8C202.622 70.0267 202.516 71.0933 202.302 72H179.902C179.689 71.0933 179.582 70.0267 179.582 68.8C179.582 67.52 179.689 66.4533 179.902 65.6C179.689 64.6933 179.582 63.6267 179.582 62.4C179.582 61.12 179.689 60.0533 179.902 59.2C179.689 58.2933 179.582 57.2267 179.582 56C179.582 54.72 179.689 53.6533 179.902 52.8C179.689 51.8933 179.582 50.8267 179.582 49.6C179.582 48.32 179.689 47.2533 179.902 46.4C179.689 45.4933 179.582 44.4267 179.582 43.2C179.582 41.92 179.689 40.8533 179.902 40C179.689 39.0933 179.582 38.0267 179.582 36.8C179.582 35.52 179.689 34.4533 179.902 33.6C179.689 32.6933 179.582 31.6267 179.582 30.4C179.582 29.12 179.689 28.0533 179.902 27.2H186.302C186.516 28.0533 186.622 29.12 186.622 30.4C186.622 31.6267 186.516 32.6933 186.302 33.6C186.516 34.4533 186.622 35.52 186.622 36.8C186.622 38.0267 186.516 39.0933 186.302 40C186.516 40.8533 186.622 41.92 186.622 43.2C186.622 44.4267 186.516 45.4933 186.302 46.4C186.516 47.2533 186.622 48.32 186.622 49.6C186.622 50.8267 186.516 51.8933 186.302 52.8C186.516 53.6533 186.622 54.72 186.622 56C186.622 57.2267 186.516 58.2933 186.302 59.2C186.516 60.0533 186.622 61.12 186.622 62.4C186.622 63.6267 186.516 64.6933 186.302 65.6H202.302ZM234.334 46.4C234.547 47.2533 234.654 48.32 234.654 49.6C234.654 50.8267 234.547 51.8933 234.334 52.8C234.547 53.6533 234.654 54.72 234.654 56C234.654 57.2267 234.547 58.2933 234.334 59.2H231.134C231.347 60.0533 231.454 61.12 231.454 62.4C231.454 63.6267 231.347 64.6933 231.134 65.6H227.934C228.147 66.4533 228.254 67.52 228.254 68.8C228.254 70.0267 228.147 71.0933 227.934 72H208.734C208.52 71.0933 208.414 70.0267 208.414 68.8C208.414 67.52 208.52 66.4533 208.734 65.6C208.52 64.6933 208.414 63.6267 208.414 62.4C208.414 61.12 208.52 60.0533 208.734 59.2C208.52 58.2933 208.414 57.2267 208.414 56C208.414 54.72 208.52 53.6533 208.734 52.8C208.52 51.8933 208.414 50.8267 208.414 49.6C208.414 48.32 208.52 47.2533 208.734 46.4C208.52 45.4933 208.414 44.4267 208.414 43.2C208.414 41.92 208.52 40.8533 208.734 40C208.52 39.0933 208.414 38.0267 208.414 36.8C208.414 35.52 208.52 34.4533 208.734 33.6C208.52 32.6933 208.414 31.6267 208.414 30.4C208.414 29.12 208.52 28.0533 208.734 27.2H227.934C228.147 28.0533 228.254 29.12 228.254 30.4C228.254 31.6267 228.147 32.6933 227.934 33.6H231.134C231.347 34.4533 231.454 35.52 231.454 36.8C231.454 38.0267 231.347 39.0933 231.134 40H234.334C234.547 40.8533 234.654 41.92 234.654 43.2C234.654 44.4267 234.547 45.4933 234.334 46.4ZM227.934 59.2C227.72 58.2933 227.614 57.2267 227.614 56C227.614 54.72 227.72 53.6533 227.934 52.8C227.72 51.8933 227.614 50.8267 227.614 49.6C227.614 48.32 227.72 47.2533 227.934 46.4C227.72 45.4933 227.614 44.4267 227.614 43.2C227.614 41.92 227.72 40.8533 227.934 40H224.734C224.52 39.0933 224.414 38.0267 224.414 36.8C224.414 35.52 224.52 34.4533 224.734 33.6H215.134C215.347 34.4533 215.454 35.52 215.454 36.8C215.454 38.0267 215.347 39.0933 215.134 40C215.347 40.8533 215.454 41.92 215.454 43.2C215.454 44.4267 215.347 45.4933 215.134 46.4C215.347 47.2533 215.454 48.32 215.454 49.6C215.454 50.8267 215.347 51.8933 215.134 52.8C215.347 53.6533 215.454 54.72 215.454 56C215.454 57.2267 215.347 58.2933 215.134 59.2C215.347 60.0533 215.454 61.12 215.454 62.4C215.454 63.6267 215.347 64.6933 215.134 65.6H224.734C224.52 64.6933 224.414 63.6267 224.414 62.4C224.414 61.12 224.52 60.0533 224.734 59.2H227.934ZM298.396 52.8C298.61 53.6533 298.716 54.72 298.716 56C298.716 57.2267 298.61 58.2933 298.396 59.2C298.61 60.0533 298.716 61.12 298.716 62.4C298.716 63.6267 298.61 64.6933 298.396 65.6H295.196C295.41 66.4533 295.516 67.52 295.516 68.8C295.516 70.0267 295.41 71.0933 295.196 72H275.996C275.783 71.0933 275.676 70.0267 275.676 68.8C275.676 67.52 275.783 66.4533 275.996 65.6H272.796C272.583 64.6933 272.476 63.6267 272.476 62.4C272.476 61.12 272.583 60.0533 272.796 59.2H279.196C279.41 60.0533 279.516 61.12 279.516 62.4C279.516 63.6267 279.41 64.6933 279.196 65.6H291.996C291.783 64.6933 291.676 63.6267 291.676 62.4C291.676 61.12 291.783 60.0533 291.996 59.2C291.783 58.2933 291.676 57.2267 291.676 56C291.676 54.72 291.783 53.6533 291.996 52.8H275.996C275.783 51.8933 275.676 50.8267 275.676 49.6C275.676 48.32 275.783 47.2533 275.996 46.4H272.796C272.583 45.4933 272.476 44.4267 272.476 43.2C272.476 41.92 272.583 40.8533 272.796 40C272.583 39.0933 272.476 38.0267 272.476 36.8C272.476 35.52 272.583 34.4533 272.796 33.6H275.996C275.783 32.6933 275.676 31.6267 275.676 30.4C275.676 29.12 275.783 28.0533 275.996 27.2H295.196C295.41 28.0533 295.516 29.12 295.516 30.4C295.516 31.6267 295.41 32.6933 295.196 33.6H298.396C298.61 34.4533 298.716 35.52 298.716 36.8C298.716 38.0267 298.61 39.0933 298.396 40H291.996C291.783 39.0933 291.676 38.0267 291.676 36.8C291.676 35.52 291.783 34.4533 291.996 33.6H279.196C279.41 34.4533 279.516 35.52 279.516 36.8C279.516 38.0267 279.41 39.0933 279.196 40C279.41 40.8533 279.516 41.92 279.516 43.2C279.516 44.4267 279.41 45.4933 279.196 46.4H295.196C295.41 47.2533 295.516 48.32 295.516 49.6C295.516 50.8267 295.41 51.8933 295.196 52.8H298.396ZM330.747 36.8C330.747 38.0267 330.641 39.0933 330.427 40C330.641 40.8533 330.747 41.92 330.747 43.2C330.747 44.4267 330.641 45.4933 330.427 46.4H327.227C327.441 47.2533 327.547 48.32 327.547 49.6C327.547 50.8267 327.441 51.8933 327.227 52.8H311.227C311.441 53.6533 311.547 54.72 311.547 56C311.547 57.2267 311.441 58.2933 311.227 59.2C311.441 60.0533 311.547 61.12 311.547 62.4C311.547 63.6267 311.441 64.6933 311.227 65.6C311.441 66.4533 311.547 67.52 311.547 68.8C311.547 70.0267 311.441 71.0933 311.227 72H304.827C304.614 71.0933 304.507 70.0267 304.507 68.8C304.507 67.52 304.614 66.4533 304.827 65.6C304.614 64.6933 304.507 63.6267 304.507 62.4C304.507 61.12 304.614 60.0533 304.827 59.2C304.614 58.2933 304.507 57.2267 304.507 56C304.507 54.72 304.614 53.6533 304.827 52.8C304.614 51.8933 304.507 50.8267 304.507 49.6C304.507 48.32 304.614 47.2533 304.827 46.4C304.614 45.4933 304.507 44.4267 304.507 43.2C304.507 41.92 304.614 40.8533 304.827 40C304.614 39.0933 304.507 38.0267 304.507 36.8C304.507 35.52 304.614 34.4533 304.827 33.6C304.614 32.6933 304.507 31.6267 304.507 30.4C304.507 29.12 304.614 28.0533 304.827 27.2H327.227C327.441 28.0533 327.547 29.12 327.547 30.4C327.547 31.6267 327.441 32.6933 327.227 33.6H330.427C330.641 34.4533 330.747 35.52 330.747 36.8ZM324.027 46.4C323.814 45.4933 323.707 44.4267 323.707 43.2C323.707 41.92 323.814 40.8533 324.027 40C323.814 39.0933 323.707 38.0267 323.707 36.8C323.707 35.52 323.814 34.4533 324.027 33.6H311.227C311.441 34.4533 311.547 35.52 311.547 36.8C311.547 38.0267 311.441 39.0933 311.227 40C311.441 40.8533 311.547 41.92 311.547 43.2C311.547 44.4267 311.441 45.4933 311.227 46.4H324.027ZM362.459 46.4C362.672 47.2533 362.779 48.32 362.779 49.6C362.779 50.8267 362.672 51.8933 362.459 52.8C362.672 53.6533 362.779 54.72 362.779 56C362.779 57.2267 362.672 58.2933 362.459 59.2H360.059C360.272 60.0533 360.379 61.12 360.379 62.4C360.379 63.6267 360.272 64.6933 360.059 65.6H356.059C356.272 66.4533 356.379 67.52 356.379 68.8C356.379 70.0267 356.272 71.0933 356.059 72H343.259C343.045 71.0933 342.939 70.0267 342.939 68.8C342.939 67.52 343.045 66.4533 343.259 65.6H339.259C339.045 64.6933 338.939 63.6267 338.939 62.4C338.939 61.12 339.045 60.0533 339.259 59.2H336.859C336.645 58.2933 336.539 57.2267 336.539 56C336.539 54.72 336.645 53.6533 336.859 52.8C336.645 51.8933 336.539 50.8267 336.539 49.6C336.539 48.32 336.645 47.2533 336.859 46.4C336.645 45.4933 336.539 44.4267 336.539 43.2C336.539 41.92 336.645 40.8533 336.859 40H339.259C339.045 39.0933 338.939 38.0267 338.939 36.8C338.939 35.52 339.045 34.4533 339.259 33.6H343.259C343.045 32.6933 342.939 31.6267 342.939 30.4C342.939 29.12 343.045 28.0533 343.259 27.2H356.059C356.272 28.0533 356.379 29.12 356.379 30.4C356.379 31.6267 356.272 32.6933 356.059 33.6H360.059C360.272 34.4533 360.379 35.52 360.379 36.8C360.379 38.0267 360.272 39.0933 360.059 40H362.459C362.672 40.8533 362.779 41.92 362.779 43.2C362.779 44.4267 362.672 45.4933 362.459 46.4ZM356.059 59.2C355.845 58.2933 355.739 57.2267 355.739 56C355.739 54.72 355.845 53.6533 356.059 52.8C355.845 51.8933 355.739 50.8267 355.739 49.6C355.739 48.32 355.845 47.2533 356.059 46.4C355.845 45.4933 355.739 44.4267 355.739 43.2C355.739 41.92 355.845 40.8533 356.059 40H353.659C353.445 39.0933 353.339 38.0267 353.339 36.8C353.339 35.52 353.445 34.4533 353.659 33.6H345.659C345.872 34.4533 345.979 35.52 345.979 36.8C345.979 38.0267 345.872 39.0933 345.659 40H343.259C343.472 40.8533 343.579 41.92 343.579 43.2C343.579 44.4267 343.472 45.4933 343.259 46.4C343.472 47.2533 343.579 48.32 343.579 49.6C343.579 50.8267 343.472 51.8933 343.259 52.8C343.472 53.6533 343.579 54.72 343.579 56C343.579 57.2267 343.472 58.2933 343.259 59.2H345.659C345.872 60.0533 345.979 61.12 345.979 62.4C345.979 63.6267 345.872 64.6933 345.659 65.6H353.659C353.445 64.6933 353.339 63.6267 353.339 62.4C353.339 61.12 353.445 60.0533 353.659 59.2H356.059ZM394.49 33.6C394.703 34.4533 394.81 35.52 394.81 36.8C394.81 38.0267 394.703 39.0933 394.49 40C394.703 40.8533 394.81 41.92 394.81 43.2C394.81 44.4267 394.703 45.4933 394.49 46.4C394.703 47.2533 394.81 48.32 394.81 49.6C394.81 50.8267 394.703 51.8933 394.49 52.8C394.703 53.6533 394.81 54.72 394.81 56C394.81 57.2267 394.703 58.2933 394.49 59.2C394.703 60.0533 394.81 61.12 394.81 62.4C394.81 63.6267 394.703 64.6933 394.49 65.6C394.703 66.4533 394.81 67.52 394.81 68.8C394.81 70.0267 394.703 71.0933 394.49 72H388.09C387.877 71.0933 387.77 70.0267 387.77 68.8C387.77 67.52 387.877 66.4533 388.09 65.6H384.09C383.877 64.6933 383.77 63.6267 383.77 62.4C383.77 61.12 383.877 60.0533 384.09 59.2H381.69C381.477 58.2933 381.37 57.2267 381.37 56C381.37 54.72 381.477 53.6533 381.69 52.8H378.49C378.277 51.8933 378.17 50.8267 378.17 49.6C378.17 48.32 378.277 47.2533 378.49 46.4H375.29C375.503 47.2533 375.61 48.32 375.61 49.6C375.61 50.8267 375.503 51.8933 375.29 52.8C375.503 53.6533 375.61 54.72 375.61 56C375.61 57.2267 375.503 58.2933 375.29 59.2C375.503 60.0533 375.61 61.12 375.61 62.4C375.61 63.6267 375.503 64.6933 375.29 65.6C375.503 66.4533 375.61 67.52 375.61 68.8C375.61 70.0267 375.503 71.0933 375.29 72H368.89C368.677 71.0933 368.57 70.0267 368.57 68.8C368.57 67.52 368.677 66.4533 368.89 65.6C368.677 64.6933 368.57 63.6267 368.57 62.4C368.57 61.12 368.677 60.0533 368.89 59.2C368.677 58.2933 368.57 57.2267 368.57 56C368.57 54.72 368.677 53.6533 368.89 52.8C368.677 51.8933 368.57 50.8267 368.57 49.6C368.57 48.32 368.677 47.2533 368.89 46.4C368.677 45.4933 368.57 44.4267 368.57 43.2C368.57 41.92 368.677 40.8533 368.89 40C368.677 39.0933 368.57 38.0267 368.57 36.8C368.57 35.52 368.677 34.4533 368.89 33.6C368.677 32.6933 368.57 31.6267 368.57 30.4C368.57 29.12 368.677 28.0533 368.89 27.2H376.89C377.103 28.0533 377.21 29.12 377.21 30.4C377.21 31.6267 377.103 32.6933 376.89 33.6H379.29C379.503 34.4533 379.61 35.52 379.61 36.8C379.61 38.0267 379.503 39.0933 379.29 40H381.69C381.903 40.8533 382.01 41.92 382.01 43.2C382.01 44.4267 381.903 45.4933 381.69 46.4H384.89C385.103 47.2533 385.21 48.32 385.21 49.6C385.21 50.8267 385.103 51.8933 384.89 52.8H388.09C387.877 51.8933 387.77 50.8267 387.77 49.6C387.77 48.32 387.877 47.2533 388.09 46.4C387.877 45.4933 387.77 44.4267 387.77 43.2C387.77 41.92 387.877 40.8533 388.09 40C387.877 39.0933 387.77 38.0267 387.77 36.8C387.77 35.52 387.877 34.4533 388.09 33.6C387.877 32.6933 387.77 31.6267 387.77 30.4C387.77 29.12 387.877 28.0533 388.09 27.2H394.49C394.703 28.0533 394.81 29.12 394.81 30.4C394.81 31.6267 394.703 32.6933 394.49 33.6ZM426.521 52.8C426.735 53.6533 426.841 54.72 426.841 56C426.841 57.2267 426.735 58.2933 426.521 59.2C426.735 60.0533 426.841 61.12 426.841 62.4C426.841 63.6267 426.735 64.6933 426.521 65.6H423.321C423.535 66.4533 423.641 67.52 423.641 68.8C423.641 70.0267 423.535 71.0933 423.321 72H404.121C403.908 71.0933 403.801 70.0267 403.801 68.8C403.801 67.52 403.908 66.4533 404.121 65.6H400.921C400.708 64.6933 400.601 63.6267 400.601 62.4C400.601 61.12 400.708 60.0533 400.921 59.2H407.321C407.535 60.0533 407.641 61.12 407.641 62.4C407.641 63.6267 407.535 64.6933 407.321 65.6H420.121C419.908 64.6933 419.801 63.6267 419.801 62.4C419.801 61.12 419.908 60.0533 420.121 59.2C419.908 58.2933 419.801 57.2267 419.801 56C419.801 54.72 419.908 53.6533 420.121 52.8H404.121C403.908 51.8933 403.801 50.8267 403.801 49.6C403.801 48.32 403.908 47.2533 404.121 46.4H400.921C400.708 45.4933 400.601 44.4267 400.601 43.2C400.601 41.92 400.708 40.8533 400.921 40C400.708 39.0933 400.601 38.0267 400.601 36.8C400.601 35.52 400.708 34.4533 400.921 33.6H404.121C403.908 32.6933 403.801 31.6267 403.801 30.4C403.801 29.12 403.908 28.0533 404.121 27.2H423.321C423.535 28.0533 423.641 29.12 423.641 30.4C423.641 31.6267 423.535 32.6933 423.321 33.6H426.521C426.735 34.4533 426.841 35.52 426.841 36.8C426.841 38.0267 426.735 39.0933 426.521 40H420.121C419.908 39.0933 419.801 38.0267 419.801 36.8C419.801 35.52 419.908 34.4533 420.121 33.6H407.321C407.535 34.4533 407.641 35.52 407.641 36.8C407.641 38.0267 407.535 39.0933 407.321 40C407.535 40.8533 407.641 41.92 407.641 43.2C407.641 44.4267 407.535 45.4933 407.321 46.4H423.321C423.535 47.2533 423.641 48.32 423.641 49.6C423.641 50.8267 423.535 51.8933 423.321 52.8H426.521ZM458.552 46.4C458.766 47.2533 458.872 48.32 458.872 49.6C458.872 50.8267 458.766 51.8933 458.552 52.8C458.766 53.6533 458.872 54.72 458.872 56C458.872 57.2267 458.766 58.2933 458.552 59.2H456.152C456.366 60.0533 456.472 61.12 456.472 62.4C456.472 63.6267 456.366 64.6933 456.152 65.6H452.152C452.366 66.4533 452.472 67.52 452.472 68.8C452.472 70.0267 452.366 71.0933 452.152 72H439.352C439.139 71.0933 439.032 70.0267 439.032 68.8C439.032 67.52 439.139 66.4533 439.352 65.6H435.352C435.139 64.6933 435.032 63.6267 435.032 62.4C435.032 61.12 435.139 60.0533 435.352 59.2H432.952C432.739 58.2933 432.632 57.2267 432.632 56C432.632 54.72 432.739 53.6533 432.952 52.8C432.739 51.8933 432.632 50.8267 432.632 49.6C432.632 48.32 432.739 47.2533 432.952 46.4C432.739 45.4933 432.632 44.4267 432.632 43.2C432.632 41.92 432.739 40.8533 432.952 40H435.352C435.139 39.0933 435.032 38.0267 435.032 36.8C435.032 35.52 435.139 34.4533 435.352 33.6H439.352C439.139 32.6933 439.032 31.6267 439.032 30.4C439.032 29.12 439.139 28.0533 439.352 27.2H452.152C452.366 28.0533 452.472 29.12 452.472 30.4C452.472 31.6267 452.366 32.6933 452.152 33.6H456.152C456.366 34.4533 456.472 35.52 456.472 36.8C456.472 38.0267 456.366 39.0933 456.152 40H458.552C458.766 40.8533 458.872 41.92 458.872 43.2C458.872 44.4267 458.766 45.4933 458.552 46.4ZM452.152 59.2C451.939 58.2933 451.832 57.2267 451.832 56C451.832 54.72 451.939 53.6533 452.152 52.8C451.939 51.8933 451.832 50.8267 451.832 49.6C451.832 48.32 451.939 47.2533 452.152 46.4C451.939 45.4933 451.832 44.4267 451.832 43.2C451.832 41.92 451.939 40.8533 452.152 40H449.752C449.539 39.0933 449.432 38.0267 449.432 36.8C449.432 35.52 449.539 34.4533 449.752 33.6H441.752C441.966 34.4533 442.072 35.52 442.072 36.8C442.072 38.0267 441.966 39.0933 441.752 40H439.352C439.566 40.8533 439.672 41.92 439.672 43.2C439.672 44.4267 439.566 45.4933 439.352 46.4C439.566 47.2533 439.672 48.32 439.672 49.6C439.672 50.8267 439.566 51.8933 439.352 52.8C439.566 53.6533 439.672 54.72 439.672 56C439.672 57.2267 439.566 58.2933 439.352 59.2H441.752C441.966 60.0533 442.072 61.12 442.072 62.4C442.072 63.6267 441.966 64.6933 441.752 65.6H449.752C449.539 64.6933 449.432 63.6267 449.432 62.4C449.432 61.12 449.539 60.0533 449.752 59.2H452.152ZM490.584 33.6C490.797 34.4533 490.904 35.52 490.904 36.8C490.904 38.0267 490.797 39.0933 490.584 40C490.797 40.8533 490.904 41.92 490.904 43.2C490.904 44.4267 490.797 45.4933 490.584 46.4C490.797 47.2533 490.904 48.32 490.904 49.6C490.904 50.8267 490.797 51.8933 490.584 52.8C490.797 53.6533 490.904 54.72 490.904 56C490.904 57.2267 490.797 58.2933 490.584 59.2C490.797 60.0533 490.904 61.12 490.904 62.4C490.904 63.6267 490.797 64.6933 490.584 65.6C490.797 66.4533 490.904 67.52 490.904 68.8C490.904 70.0267 490.797 71.0933 490.584 72H484.184C483.97 71.0933 483.864 70.0267 483.864 68.8C483.864 67.52 483.97 66.4533 484.184 65.6H480.184C479.97 64.6933 479.864 63.6267 479.864 62.4C479.864 61.12 479.97 60.0533 480.184 59.2H477.784C477.57 58.2933 477.464 57.2267 477.464 56C477.464 54.72 477.57 53.6533 477.784 52.8H474.584C474.37 51.8933 474.264 50.8267 474.264 49.6C474.264 48.32 474.37 47.2533 474.584 46.4H471.384C471.597 47.2533 471.704 48.32 471.704 49.6C471.704 50.8267 471.597 51.8933 471.384 52.8C471.597 53.6533 471.704 54.72 471.704 56C471.704 57.2267 471.597 58.2933 471.384 59.2C471.597 60.0533 471.704 61.12 471.704 62.4C471.704 63.6267 471.597 64.6933 471.384 65.6C471.597 66.4533 471.704 67.52 471.704 68.8C471.704 70.0267 471.597 71.0933 471.384 72H464.984C464.77 71.0933 464.664 70.0267 464.664 68.8C464.664 67.52 464.77 66.4533 464.984 65.6C464.77 64.6933 464.664 63.6267 464.664 62.4C464.664 61.12 464.77 60.0533 464.984 59.2C464.77 58.2933 464.664 57.2267 464.664 56C464.664 54.72 464.77 53.6533 464.984 52.8C464.77 51.8933 464.664 50.8267 464.664 49.6C464.664 48.32 464.77 47.2533 464.984 46.4C464.77 45.4933 464.664 44.4267 464.664 43.2C464.664 41.92 464.77 40.8533 464.984 40C464.77 39.0933 464.664 38.0267 464.664 36.8C464.664 35.52 464.77 34.4533 464.984 33.6C464.77 32.6933 464.664 31.6267 464.664 30.4C464.664 29.12 464.77 28.0533 464.984 27.2H472.984C473.197 28.0533 473.304 29.12 473.304 30.4C473.304 31.6267 473.197 32.6933 472.984 33.6H475.384C475.597 34.4533 475.704 35.52 475.704 36.8C475.704 38.0267 475.597 39.0933 475.384 40H477.784C477.997 40.8533 478.104 41.92 478.104 43.2C478.104 44.4267 477.997 45.4933 477.784 46.4H480.984C481.197 47.2533 481.304 48.32 481.304 49.6C481.304 50.8267 481.197 51.8933 480.984 52.8H484.184C483.97 51.8933 483.864 50.8267 483.864 49.6C483.864 48.32 483.97 47.2533 484.184 46.4C483.97 45.4933 483.864 44.4267 483.864 43.2C483.864 41.92 483.97 40.8533 484.184 40C483.97 39.0933 483.864 38.0267 483.864 36.8C483.864 35.52 483.97 34.4533 484.184 33.6C483.97 32.6933 483.864 31.6267 483.864 30.4C483.864 29.12 483.97 28.0533 484.184 27.2H490.584C490.797 28.0533 490.904 29.12 490.904 30.4C490.904 31.6267 490.797 32.6933 490.584 33.6ZM522.615 52.8C522.828 53.6533 522.935 54.72 522.935 56C522.935 57.2267 522.828 58.2933 522.615 59.2C522.828 60.0533 522.935 61.12 522.935 62.4C522.935 63.6267 522.828 64.6933 522.615 65.6H519.415C519.628 66.4533 519.735 67.52 519.735 68.8C519.735 70.0267 519.628 71.0933 519.415 72H500.215C500.002 71.0933 499.895 70.0267 499.895 68.8C499.895 67.52 500.002 66.4533 500.215 65.6H497.015C496.802 64.6933 496.695 63.6267 496.695 62.4C496.695 61.12 496.802 60.0533 497.015 59.2H503.415C503.628 60.0533 503.735 61.12 503.735 62.4C503.735 63.6267 503.628 64.6933 503.415 65.6H516.215C516.002 64.6933 515.895 63.6267 515.895 62.4C515.895 61.12 516.002 60.0533 516.215 59.2C516.002 58.2933 515.895 57.2267 515.895 56C515.895 54.72 516.002 53.6533 516.215 52.8H500.215C500.002 51.8933 499.895 50.8267 499.895 49.6C499.895 48.32 500.002 47.2533 500.215 46.4H497.015C496.802 45.4933 496.695 44.4267 496.695 43.2C496.695 41.92 496.802 40.8533 497.015 40C496.802 39.0933 496.695 38.0267 496.695 36.8C496.695 35.52 496.802 34.4533 497.015 33.6H500.215C500.002 32.6933 499.895 31.6267 499.895 30.4C499.895 29.12 500.002 28.0533 500.215 27.2H519.415C519.628 28.0533 519.735 29.12 519.735 30.4C519.735 31.6267 519.628 32.6933 519.415 33.6H522.615C522.828 34.4533 522.935 35.52 522.935 36.8C522.935 38.0267 522.828 39.0933 522.615 40H516.215C516.002 39.0933 515.895 38.0267 515.895 36.8C515.895 35.52 516.002 34.4533 516.215 33.6H503.415C503.628 34.4533 503.735 35.52 503.735 36.8C503.735 38.0267 503.628 39.0933 503.415 40C503.628 40.8533 503.735 41.92 503.735 43.2C503.735 44.4267 503.628 45.4933 503.415 46.4H519.415C519.628 47.2533 519.735 48.32 519.735 49.6C519.735 50.8267 519.628 51.8933 519.415 52.8H522.615Z" fill="white"/>
<rect width="64" height="64" transform="translate(1520 16)" fill="white"/>
<path d="M1537.66 62.3359H1549.95V66.4316H1533.56V50.0479H1537.66V62.3359ZM1541.76 62.334H1537.66V58.2383H1541.76V62.334ZM1545.86 58.2363H1541.76V54.1406H1545.86V58.2363ZM1549.95 54.1387H1545.86V50.043H1549.95V54.1387ZM1562.24 41.8555H1558.14V45.9492H1554.05V41.8535H1558.14V37.7598H1562.24V41.8555ZM1570.43 33.6602H1570.43V45.9482H1566.33V33.6602H1566.33V37.7539H1562.23V33.6602H1554.05V29.5645H1570.43V33.6602Z" fill="black"/>
<rect width="64" height="64" transform="translate(1600 16)" fill="white"/>
<path d="M1625.86 54.1387V58.2344H1621.76V62.3281H1617.67V58.2324H1621.76V54.1387H1625.86ZM1642.24 58.2324H1646.34V62.3281H1642.24V58.2344H1638.15V54.1387H1642.24V58.2324ZM1634.05 50.043H1629.96V54.1367H1625.86V50.041H1629.96V45.9473H1634.05V50.043ZM1638.15 54.1367H1634.05V50.041H1638.15V54.1367ZM1629.95 45.9492H1625.86V41.8535H1629.95V45.9492ZM1638.15 45.9492H1634.05V41.8535H1638.15V45.9492ZM1621.76 37.752H1625.86V41.8477H1621.76V37.7539H1617.67V33.6582H1621.76V37.752ZM1646.34 37.7539H1642.24V41.8477H1638.15V37.752H1642.24V33.6582H1646.34V37.7539Z" fill="black"/>
<mask id="path-5-inside-1_42_33063" fill="white">
<path d="M0 96H1680V500H0V96Z"/>
</mask>
<path d="M1680 500V508H1688V500H1680ZM0 500H-8V508H0V500ZM1680 96H1672V500H1680H1688V96H1680ZM1680 500V492H0V500V508H1680V500ZM0 500H8V96H0H-8V500H0Z" fill="url(#paint1_linear_42_33063)" mask="url(#path-5-inside-1_42_33063)"/>
<defs>
<linearGradient id="paint0_linear_42_33063" x1="1680" y1="48" x2="0" y2="48" gradientUnits="userSpaceOnUse">
<stop stop-color="#FFD119"/>
<stop offset="1" stop-color="#FF6D19"/>
</linearGradient>
<linearGradient id="paint1_linear_42_33063" x1="1680" y1="298" x2="0" y2="298" gradientUnits="userSpaceOnUse">
<stop stop-color="#FFD119"/>
<stop offset="1" stop-color="#FF6D19"/>
</linearGradient>
</defs>
</svg>
